<svg width="70" height="94" viewBox="0 0 70 94" fill="none" xmlns="http://www.w3.org/2000/svg">
<path d="M69.7847 81.6016C69.6172 80.5418 69.3378 79.6656 68.9301 78.9237C68.9253 78.9144 68.9201 78.9053 68.9148 78.8964C68.4267 78.0452 67.8718 77.4486 67.1681 77.0184C66.3788 76.5361 65.4814 76.2915 64.5005 76.2915H49.2456V4.68614C49.2456 3.91567 49.0088 3.22869 48.5422 2.64574C48.0235 1.99678 47.2012 1.54152 46.0286 1.25468C45.217 1.05006 44.1026 0.911465 42.6231 0.831071C41.3839 0.763591 39.7788 0.733398 37.4185 0.733398C35.6744 0.733398 34.2966 0.733398 33.199 0.757407C32.0501 0.782508 31.1042 0.834891 30.3985 0.911646C29.5882 0.996041 28.9177 1.11409 28.3484 1.27214C28.3338 1.27615 28.3192 1.28051 28.3046 1.28469C27.7019 1.46403 27.1963 1.68484 26.7633 1.95785L3.94863 14.2748C3.92813 14.2859 3.90806 14.2972 3.88821 14.3088C3.09076 14.7715 2.49704 15.1458 2.01652 15.5715C1.38223 16.1075 0.915232 16.7479 0.627967 17.476C0.339831 18.124 0.158573 18.8925 0.0892104 19.7614C0.0300998 20.504 0 21.4598 0 22.6024C0 24.4504 0.0903015 25.8636 0.27614 26.9229C0.510183 28.2556 1.00008 29.2371 1.77397 29.9226C1.78924 29.9361 1.80473 29.9493 1.82021 29.9626C2.77798 30.7609 4.04024 31.0763 5.57275 30.9001C5.60133 30.8968 5.62968 30.893 5.65804 30.8888C6.61537 30.7462 7.79998 30.3906 9.2797 29.8015C9.31831 29.7862 9.35627 29.7698 9.39356 29.7525L23.2852 23.3614L23.2859 41.0104C23.2859 42.0149 24.2626 42.8292 25.4671 42.8292C26.6715 42.8292 27.6483 42.0147 27.6483 41.0104L27.6476 20.2805C27.6476 19.637 27.2397 19.0413 26.5753 18.7143C25.9105 18.387 25.0882 18.377 24.4127 18.6879L7.34345 26.541C6.05174 27.0523 5.32519 27.2371 4.93475 27.3005C4.91076 27.3031 4.88895 27.3047 4.8691 27.306C4.79275 27.1659 4.67933 26.8911 4.5923 26.3958C4.43962 25.5252 4.36219 24.2487 4.36219 22.6021C4.36219 21.5395 4.38901 20.665 4.4418 20.0027C4.49437 19.3438 4.62524 18.9433 4.72557 18.7234C4.73997 18.6919 4.75327 18.6599 4.76571 18.6279C4.8451 18.4198 4.95722 18.263 5.12931 18.1197C5.14851 18.1037 5.16727 18.0873 5.18559 18.0707C5.41221 17.8672 5.87681 17.5864 6.35013 17.3112L29.2106 4.96952C29.2715 4.9366 29.3302 4.90131 29.3867 4.86366C29.4251 4.83801 29.5226 4.78563 29.7485 4.71688C30.0367 4.63885 30.4374 4.57301 30.9508 4.51935C31.5192 4.45751 32.3143 4.41513 33.3131 4.3933C34.3535 4.37111 35.7061 4.37111 37.4185 4.37111C39.6802 4.37111 41.1977 4.39876 42.3389 4.46096C43.8238 4.54172 44.4996 4.66922 44.77 4.73761C44.7783 4.7398 44.7864 4.74161 44.7947 4.7438C44.8268 4.75162 44.8562 4.75908 44.883 4.76635V78.1101C44.883 79.1145 45.8598 79.929 47.0642 79.929H64.5003C64.5309 79.929 64.5474 79.9312 64.5496 79.9315C64.5531 79.9328 64.5668 79.9386 64.5887 79.9521C64.5946 79.9557 64.7361 80.0452 64.9715 80.4521C65.1885 80.8522 65.3527 81.3984 65.4585 82.0701C65.5791 82.8543 65.6376 83.8677 65.6376 85.1687C65.6376 86.3501 65.5613 87.3514 65.4112 88.1448C65.2347 89.0764 65.0424 89.5313 64.9119 89.7486C64.8945 89.7777 64.8779 89.8074 64.8622 89.8372C64.7265 90.0969 64.6068 90.1919 64.6083 90.1924C64.5996 90.1975 64.5911 90.2024 64.5823 90.2077C64.5658 90.2177 64.5605 90.2206 64.5287 90.2206H5.6094C5.60307 90.2174 5.59544 90.2132 5.58628 90.2079C5.55727 90.1817 5.4397 90.0669 5.27371 89.7776C5.26826 89.7681 5.2628 89.7586 5.25713 89.7494C5.12648 89.5315 4.93388 89.0762 4.75742 88.1446C4.60713 87.351 4.53079 86.3499 4.53079 85.1687C4.53079 83.8681 4.58947 82.8544 4.70921 82.0761C4.81609 81.3984 4.98034 80.8522 5.19715 80.4521C5.39869 80.1038 5.54265 79.9686 5.59173 79.929H25.4664C26.6711 79.929 27.6476 79.1145 27.6476 78.1101V57.3804C27.6476 56.3761 26.6711 55.5616 25.4664 55.5616C24.2617 55.5616 23.2852 56.3761 23.2852 57.3804V76.2915H5.55574C4.54868 76.2915 3.62581 76.5623 2.88399 77.0754C2.24577 77.5012 1.71224 78.0972 1.25375 78.8968C1.24874 78.9059 1.2435 78.9148 1.23849 78.9239C0.83082 79.6658 0.551407 80.5419 0.383236 81.6076C0.236878 82.5598 0.168606 83.6915 0.168606 85.1689C0.168606 86.5589 0.260217 87.7181 0.448455 88.7122C0.664394 89.8519 0.949695 90.6941 1.34602 91.3611C1.82152 92.1859 2.3834 92.7799 3.06328 93.1759C3.81885 93.6228 4.68042 93.8589 5.55596 93.8589H64.5289C65.4594 93.8589 66.35 93.6228 67.1055 93.1759C67.819 92.7605 68.4175 92.1239 68.8398 91.3318C69.2272 90.6699 69.5077 89.8356 69.7204 88.7124C69.9084 87.7181 70 86.5591 70 85.1691C70 83.6913 69.9317 82.5596 69.7847 81.6016Z" fill="white"/>
<path d="M25.467 51.0109C26.6717 51.0109 27.6482 50.1964 27.6482 49.192C27.6482 48.1877 26.6717 47.3732 25.467 47.3732H25.4655C24.2608 47.3732 23.2852 48.1877 23.2852 49.192C23.2852 50.1964 24.2623 51.0109 25.467 51.0109Z" fill="white"/>
</svg>
