<svg width="70" height="94" viewBox="0 0 70 94" fill="none" xmlns="http://www.w3.org/2000/svg">
<path d="M69.7441 81.1924C69.5458 80.0107 69.2732 79.1342 68.8859 78.4363C68.4154 77.5631 67.8335 76.926 67.1094 76.4913C66.3599 76.004 65.4752 75.7468 64.5464 75.7468H30.6549L38.7484 68.3401C44.5477 63.196 49.2772 58.6073 52.8049 54.7019C56.3642 50.7617 59.1721 47.1014 61.1536 43.8179C63.1908 40.4179 64.5031 37.3246 65.1679 34.3501C65.7945 31.4497 66.1121 28.5006 66.1121 25.585C66.1121 22.1085 65.4368 18.8095 64.1048 15.7804C62.747 12.6918 60.6695 9.9966 57.9299 7.76997C55.2145 5.56316 51.766 3.81362 47.6763 2.5688C43.6488 1.3509 38.9128 0.733398 33.6002 0.733398C30.284 0.733398 27.0105 1.01823 23.8577 1.5828C20.8159 2.1461 17.9619 2.84744 15.3753 3.66756C12.7583 4.49714 10.6036 5.34308 8.79682 6.2496C6.97766 7.1512 5.70521 7.90911 4.9067 8.56626C4.88577 8.58354 4.86544 8.60082 4.84532 8.61883C4.10758 9.27925 3.58161 9.83964 3.23733 10.3325C3.22757 10.3464 3.21822 10.3602 3.20887 10.3744C2.83939 10.9364 2.56401 11.5614 2.39045 12.2327C2.19494 12.908 2.0606 13.5903 1.9791 14.3222C1.90065 15.0463 1.8657 15.9159 1.8657 17.1418C1.8657 18.8253 1.92911 20.1643 2.05836 21.2309C2.18152 22.2676 2.35895 23.1912 2.60039 24.0546C2.6075 24.0798 2.61502 24.1047 2.62315 24.1294C2.95666 25.1372 3.40357 25.8348 4.02751 26.3202C4.73497 26.8924 5.61233 27.1949 6.56754 27.1949C7.67151 27.1949 8.89844 26.7565 10.4278 25.8155C11.5189 25.1652 12.8969 24.4361 14.6307 23.5918C16.2937 22.7922 18.2225 22.0701 20.3635 21.4457C22.4816 20.828 24.9381 20.5146 27.6647 20.5146C29.5376 20.5146 31.1496 20.7518 32.4404 21.2138C33.7703 21.7016 34.8158 22.3227 35.6368 23.1123C36.5044 23.9472 37.1534 24.9037 37.5722 25.9719C38.0251 27.0912 38.2545 28.3111 38.2545 29.5978C38.2545 31.1343 38.0521 32.7444 37.6531 34.3832C37.2379 36.0876 36.4884 37.9492 35.4249 39.9163C34.9361 40.8206 35.3588 41.9083 36.3691 42.3457C37.3786 42.7826 38.5947 42.405 39.0837 41.5007C40.2862 39.2762 41.141 37.142 41.6243 35.1578C42.0855 33.2651 42.319 31.3944 42.319 29.5979C42.319 27.8881 42.0078 26.2516 41.4006 24.7509C40.8018 23.2238 39.8637 21.8393 38.6124 20.635C37.382 19.4515 35.8673 18.5399 33.9656 17.8424C32.1764 17.202 30.0566 16.8773 27.6643 16.8773C24.5093 16.8773 21.6291 17.2509 19.1039 17.9875C16.734 18.6787 14.5817 19.4861 12.6971 20.3924C10.8397 21.2969 9.35633 22.0832 8.1613 22.7962C8.15277 22.8013 8.14423 22.8066 8.1357 22.8116C7.36544 23.2866 6.90755 23.4608 6.69293 23.5237C6.65249 23.4457 6.59619 23.3215 6.53238 23.1329C6.34256 22.4457 6.2011 21.6972 6.09949 20.8424C5.98527 19.9035 5.92999 18.6932 5.92999 17.1421C5.92999 16.0526 5.95986 15.268 6.02368 14.6785C6.08465 14.1323 6.18505 13.6241 6.33077 13.125C6.33605 13.1061 6.34134 13.0876 6.34601 13.0686C6.42304 12.766 6.54437 12.4808 6.6974 12.2414C6.80491 12.0925 7.06932 11.7754 7.68634 11.2207C8.0164 10.955 8.84153 10.3857 10.7747 9.42749C12.3866 8.61883 14.3352 7.85637 16.7317 7.09682C19.1449 6.33181 21.8193 5.67539 24.6678 5.14774C27.5461 4.63246 30.5511 4.37109 33.6002 4.37109C38.4695 4.37109 42.7675 4.9242 46.3713 6.01387C49.9269 7.09609 52.8964 8.593 55.1974 10.4628C57.5029 12.3367 59.1792 14.5117 60.3224 17.1123C61.4672 19.7156 62.0474 22.5661 62.0474 25.585C62.0474 28.2696 61.7548 30.9863 61.1796 33.6483C60.5971 36.2547 59.4167 39.019 57.5744 42.094C55.7144 45.176 53.0461 48.6485 49.644 52.415C46.2071 56.2197 41.575 60.7117 35.8758 65.7664C35.8683 65.773 35.8608 65.7797 35.8535 65.7865L24.3717 76.2939C23.8 76.8174 23.6342 77.5964 23.9514 78.271C24.2689 78.9458 25.0068 79.3845 25.8249 79.3845H64.5464C64.625 79.3845 64.6637 79.396 64.7263 79.4382C64.7639 79.4633 64.8023 79.4873 64.8415 79.51C64.858 79.5197 65.0096 79.6157 65.2282 80.0231C65.2329 80.0318 65.2378 80.0406 65.2425 80.0491C65.4317 80.3876 65.5939 80.9542 65.7241 81.7326C65.864 82.5662 65.9349 83.5835 65.9349 84.7563C65.9349 86.085 65.8806 87.1188 65.7693 87.9173C65.6733 88.6037 65.5195 89.2294 65.312 89.7774C65.199 90.0195 65.0931 90.1452 65.0451 90.1886C65.0108 90.2045 64.9553 90.2208 64.8571 90.2208H8.33019C7.39186 90.2208 6.59477 90.1466 5.96129 90.0004C5.5475 89.9049 5.23147 89.7463 5.01706 89.5242C4.73822 89.237 4.51629 88.7483 4.35817 88.0722C4.16327 87.2385 4.0645 86.0604 4.0645 84.5709C4.0645 83.157 4.13725 81.9405 4.28053 80.9556C4.41894 80.0055 4.63863 79.237 4.95202 78.606C5.31053 77.884 5.7674 77.1692 6.30374 76.4891C6.92056 75.7157 7.66948 74.928 8.59277 74.0809C8.60253 74.072 8.61208 74.0629 8.62163 74.0538L25.6426 57.7777C26.5091 56.9667 27.3371 56.1718 28.1037 55.4148C28.8575 54.6706 28.7943 53.5203 27.9629 52.8457C27.1317 52.1713 25.8462 52.2273 25.0922 52.9718C24.3475 53.7069 23.5415 54.4805 22.6971 55.271C22.6922 55.2755 22.6871 55.2804 22.6822 55.2852L5.66782 71.5549C4.6051 72.5311 3.73119 73.4538 2.98938 74.3834C2.2933 75.2659 1.70392 76.1897 1.2377 77.1288C0.762943 78.0846 0.439799 79.1826 0.250181 80.4856C0.0816995 81.6419 0 82.9782 0 84.5711C0 86.3349 0.124176 87.7239 0.379845 88.8178C0.686527 90.1275 1.1999 91.1395 1.94557 91.9067C2.6955 92.6839 3.73302 93.2429 4.94592 93.5229C5.91109 93.7459 7.05002 93.8589 8.3304 93.8589H64.8575C65.7751 93.8589 66.6485 93.6199 67.3829 93.1675C67.3998 93.1572 67.4163 93.1466 67.4327 93.1359C68.143 92.6697 68.7052 91.982 69.1031 91.0919C69.1149 91.0653 69.1259 91.0386 69.1365 91.0118C69.4452 90.2143 69.6693 89.3252 69.8029 88.3691C69.9354 87.4194 70 86.2379 70 84.757C69.9998 83.4033 69.9138 82.2043 69.7441 81.1924Z" fill="white"/>
<path d="M34.4144 47.8531C34.4144 46.8488 33.5043 46.0343 32.382 46.0343H32.3804C31.2581 46.0343 30.3489 46.8488 30.3489 47.8531C30.3489 48.8575 31.2596 49.672 32.382 49.672C33.5045 49.672 34.4144 48.8575 34.4144 47.8531Z" fill="white"/>
</svg>
