<svg width="70" height="94" viewBox="0 0 70 94" fill="none" xmlns="http://www.w3.org/2000/svg">
<path d="M68.3217 57.3477C67.2213 54.899 65.6117 52.672 63.5372 50.7283C61.4729 48.7942 58.9232 47.1734 55.9661 45.914C54.9022 45.4562 53.7974 45.0582 52.6433 44.7177C53.2909 44.4198 53.915 44.1006 54.5147 43.7603C56.9713 42.3665 59.0134 40.6757 60.5849 38.735C62.1991 36.7955 63.4318 34.56 64.247 32.0945C65.062 29.6554 65.4752 27.0128 65.4752 24.2398C65.4752 20.6297 64.7643 17.3161 63.366 14.3972C61.9777 11.4659 59.8667 8.93863 57.0843 6.88004C54.3589 4.88439 50.9913 3.34182 47.0711 2.29343C43.1719 1.25832 38.7083 0.733398 33.8041 0.733398C30.0262 0.733398 26.468 1.02151 23.212 1.59244C19.8527 2.20631 17.0445 2.89657 14.6199 3.70523C12.1503 4.53808 10.0436 5.41477 8.34606 6.31765C6.49809 7.31693 5.49559 7.93171 4.88534 8.43971C4.87227 8.45063 4.85941 8.46154 4.84676 8.47282C4.12511 9.10578 3.69159 9.57814 3.40244 10.0472C3.11017 10.5067 2.87225 11.0321 2.65487 11.6986C2.65238 11.7058 2.6503 11.7131 2.64781 11.7204C2.45283 12.3483 2.32817 13.072 2.26677 13.9359C2.21159 14.7313 2.18484 15.6775 2.18484 16.8283C2.18484 18.2439 2.2396 19.388 2.35285 20.3301C2.46818 21.2665 2.65217 22.0555 2.89984 22.6752C2.9098 22.6997 2.92017 22.7243 2.93116 22.7483C3.30287 23.5639 3.84965 24.1661 4.55677 24.5382C5.15914 24.8664 5.87249 25.0326 6.67772 25.0326C7.71569 25.0326 8.89823 24.6303 10.6317 23.6877C11.9248 22.9849 13.46 22.2265 15.1945 21.4333C16.9543 20.6513 18.9647 19.9282 21.1896 19.2776C23.3057 18.6382 25.518 18.3276 27.9523 18.3276C30.053 18.3276 31.8532 18.5718 33.3036 19.0535C33.3121 19.0564 33.3208 19.0591 33.3293 19.0618C33.9937 19.2737 34.6116 19.5289 35.1658 19.8207C36.1484 20.3378 37.4222 20.058 38.0117 19.1966C38.601 18.3352 38.2826 17.2179 37.3001 16.7011C36.5224 16.2921 35.6678 15.9376 34.7595 15.6471C32.8142 15.0029 30.5873 14.6897 27.9523 14.6897C25.0911 14.6897 22.3611 15.076 19.8583 15.8319C17.4555 16.5344 15.2517 17.3287 13.3081 18.193C13.3013 18.1962 13.2947 18.1992 13.2876 18.2022C11.4579 19.0386 9.82896 19.8436 8.44563 20.5955C7.49768 21.111 6.99902 21.2958 6.77417 21.3614C6.69017 21.1202 6.5682 20.6739 6.47818 19.9438C6.38214 19.1453 6.3336 18.0971 6.3336 16.8277C6.3336 15.7512 6.35787 14.877 6.40744 14.1586C6.44996 13.5614 6.53065 13.0662 6.64723 12.6867C6.77127 12.3086 6.89967 12.0147 7.0291 11.813C7.03678 11.8011 7.04424 11.789 7.05171 11.7768C7.07992 11.7304 7.21371 11.5429 7.75883 11.0629C8.13303 10.7578 9.06252 10.2031 10.5104 9.42026C11.9846 8.63597 13.8682 7.85532 16.1018 7.10231C18.3125 6.36476 20.9149 5.72707 24.0415 5.15595C27.0143 4.63539 30.2988 4.37111 33.8041 4.37111C38.3007 4.37111 42.3596 4.84365 45.865 5.77436C49.2481 6.67888 52.128 7.99046 54.4172 9.66635C56.6809 11.3413 58.4027 13.4025 59.5382 15.7995C60.7419 18.3117 61.3268 21.0724 61.3268 24.2399C61.3268 26.6665 60.9698 28.9652 60.2644 31.0767C59.5811 33.1425 58.5593 35.0005 57.227 36.5989C57.2212 36.606 57.2152 36.6131 57.2094 36.6202C55.925 38.2091 54.3062 39.5456 52.2612 40.7062C50.2568 41.8434 47.8984 42.7064 45.2516 43.271C44.3219 43.4694 43.6675 44.1994 43.6675 45.0384V45.2436C43.6675 46.1641 44.4518 46.9395 45.4941 47.0495C48.7857 47.3965 51.6134 48.0935 54.1463 49.183C56.6518 50.2501 58.7923 51.6063 60.5083 53.2142C62.2482 54.844 63.5415 56.6323 64.4648 58.6869C65.3854 60.7157 65.8521 62.9218 65.8521 65.2439C65.8521 69.2599 64.979 72.8489 63.2623 75.9015C61.4965 78.9981 59.0532 81.61 56.0003 83.6644C52.8482 85.7855 49.0357 87.425 44.6824 88.534C40.1763 89.6533 35.2127 90.221 29.9291 90.221C26.6773 90.221 23.6156 90.0144 20.8322 89.6077C17.9093 89.1768 15.4525 88.675 13.3214 88.0735C13.3146 88.0715 13.3077 88.0696 13.3007 88.0678C11.2521 87.5105 9.48899 86.8936 8.0484 86.2288C6.68166 85.6082 5.87311 85.158 5.55968 84.9359C5.32633 84.7504 5.17325 84.5767 5.06787 84.3785C4.88637 83.9967 4.71525 83.55 4.57689 83.1C4.42568 82.5889 4.31491 81.9295 4.24708 81.1367C4.18029 80.3741 4.14897 79.3746 4.14897 77.9921C4.14897 75.5188 4.44248 74.5857 4.57876 74.2865C4.59639 74.2527 4.61278 74.2241 4.62792 74.2C4.86667 74.27 5.34023 74.4366 6.15832 74.8253C7.46781 75.4473 9.13947 76.1208 11.1262 76.8271C13.1252 77.5377 15.4957 78.2074 18.1717 78.8173C20.9305 79.4464 24.0811 79.7655 27.5362 79.7655C30.4917 79.7655 33.1803 79.4474 35.5272 78.8198C37.8556 78.1974 39.9172 77.2822 41.6554 76.0997C41.666 76.0927 41.6764 76.0854 41.6865 76.0781C43.426 74.8473 44.7538 73.3465 45.6333 71.6181C45.637 71.611 45.6403 71.6039 45.6441 71.5966C46.481 69.8929 46.9054 67.9856 46.9054 65.9283C46.9054 63.668 46.3891 61.5898 45.3707 59.7515C45.3671 59.7455 45.3638 59.7393 45.3601 59.7329C44.2841 57.8455 42.734 56.2524 40.7527 54.9977C38.8232 53.7378 36.3561 52.7571 33.4245 52.0834C30.5788 51.4228 27.2326 51.0877 23.4789 51.0877H14.9485C14.5689 51.0877 14.2743 51.059 14.0713 51.0022C14.0489 50.9821 14.0026 50.9342 13.9431 50.8404C13.8514 50.6827 13.6431 50.2525 13.5199 49.4308C13.4094 48.6936 13.3554 47.6748 13.3554 46.3158C13.3554 45.0408 13.4085 44.0857 13.5179 43.396C13.6492 42.5666 13.8302 42.2435 13.8825 42.1642C13.9039 42.1322 13.9238 42.0997 13.9427 42.0666C13.974 42.0113 14.0007 41.9785 14.0161 41.9616C14.1758 41.8972 14.4079 41.8632 14.6882 41.8632H23.2707C26.4265 41.8632 29.2535 41.53 31.674 40.873C34.1685 40.2253 36.3415 39.2468 38.1462 37.9543C39.6579 36.8534 40.8794 35.54 41.7761 34.0507C42.3111 33.1623 41.9236 32.0619 40.9105 31.5929C39.8971 31.124 38.6423 31.4637 38.1076 32.3519C37.4567 33.4324 36.6023 34.3497 35.5087 35.1462C34.1243 36.1375 32.4813 36.8705 30.4852 37.3877C30.4761 37.3901 30.467 37.3923 30.4579 37.3948C28.4332 37.9459 26.015 38.2253 23.2707 38.2253H14.6882C13.7954 38.2253 12.9817 38.3723 12.2689 38.662C11.4237 38.9931 10.7306 39.5896 10.2602 40.3903C9.85344 41.026 9.57465 41.8463 9.4085 42.8952C9.27098 43.7645 9.20668 44.8514 9.20668 46.3156C9.20668 47.856 9.27015 48.9966 9.40643 49.9051C9.56366 50.9524 9.85634 51.8395 10.276 52.5419C10.2812 52.5506 10.2865 52.5594 10.2919 52.5681C10.8196 53.417 11.572 54.0366 12.4676 54.3602C12.4803 54.3646 12.4927 54.3691 12.5056 54.3733C13.2092 54.6134 13.9854 54.7253 14.9481 54.7253H23.4785C26.8741 54.7253 29.8629 55.0194 32.3674 55.6009C34.7921 56.158 36.7829 56.9388 38.2845 57.9215C38.2938 57.9277 38.3032 57.9337 38.3127 57.9397C39.768 58.8592 40.8577 59.9747 41.6438 61.3499C42.3926 62.7053 42.7567 64.203 42.7567 65.9281C42.7567 67.4835 42.4478 68.9027 41.8388 70.1468C41.2231 71.3522 40.326 72.3631 39.0964 73.236C37.7612 74.1414 36.1534 74.8491 34.317 75.34C32.3622 75.8626 30.0807 76.1276 27.5358 76.1276C24.4327 76.1276 21.6333 75.848 19.2151 75.2965C16.7135 74.7263 14.5166 74.107 12.6846 73.4557C10.8395 72.8002 9.30873 72.1847 8.13407 71.6264C6.51966 70.8594 5.40474 70.5175 4.51902 70.5175C2.88573 70.5175 1.5219 71.36 0.777025 72.8287C0.770387 72.8416 0.763956 72.8551 0.757526 72.8682C0.247669 73.9411 0 75.6172 0 77.9919C0 79.4699 0.035055 80.5576 0.109936 81.4121C0.197056 82.4315 0.344537 83.2824 0.565447 84.0296C0.762089 84.67 0.993994 85.2699 1.25473 85.8132C1.26116 85.8266 1.26801 85.8403 1.27506 85.8539C1.62623 86.5385 2.13485 87.1344 2.8289 87.6757C2.84529 87.6884 2.86188 87.701 2.87847 87.7132C3.51382 88.1775 4.61112 88.765 6.12762 89.4538C7.77833 90.2155 9.77461 90.9174 12.0609 91.5398C14.382 92.1943 17.0261 92.7357 20.1462 93.1957C23.1576 93.6359 26.4487 93.8589 29.9283 93.8589C35.5942 93.8589 40.9383 93.2448 45.8258 92.0308C50.6895 90.7916 54.9623 88.948 58.5253 86.5504C62.0812 84.1576 64.923 81.1222 66.9774 77.5195C68.9832 73.9531 70 69.8231 70 65.2441C70.0006 62.459 69.4348 59.8006 68.3217 57.3477Z" fill="white"/>
<path d="M43.4228 25.1084C43.4228 24.104 42.494 23.2896 41.3485 23.2896H41.3469C40.2015 23.2896 39.2734 24.104 39.2734 25.1084C39.2734 26.1128 40.2029 26.9273 41.3485 26.9273C42.4942 26.9273 43.4228 26.1128 43.4228 25.1084Z" fill="white"/>
</svg>
