<svg width="70" height="95" viewBox="0 0 70 95" fill="none" xmlns="http://www.w3.org/2000/svg">
<path d="M40.0206 16.4603H39.8792C39.2216 16.4603 38.6143 16.8095 38.2875 17.3756L30.6492 30.6096C30.146 31.4813 30.4508 32.5927 31.3298 33.0916C32.2089 33.591 33.3294 33.2885 33.8325 32.4166L38.1866 24.8727V57.1364H19.5646L25.6314 46.6257C26.1346 45.7539 25.83 44.6426 24.9508 44.1436C24.0719 43.6444 22.9511 43.9468 22.4481 44.8186L14.8102 58.0519C14.4853 58.6148 14.4872 59.3065 14.8153 59.8676C15.1434 60.4288 15.7479 60.7742 16.4019 60.7742H40.021C41.0339 60.7742 41.855 59.9597 41.855 58.9553V18.2792C41.8547 17.2746 41.0336 16.4603 40.0206 16.4603Z" fill="white"/>
<path d="M69.0252 59.8672C67.9773 57.6105 66.5185 57.1362 65.4784 57.1362H59.3923V5.65517C59.3923 4.93236 59.1604 3.87743 58.0562 2.9549C58.0298 2.93271 58.0026 2.91143 57.9751 2.8907C57.2615 2.36014 56.3036 1.94926 55.1274 1.66952C54.0228 1.38487 52.6084 1.18498 50.806 1.05893C49.2054 0.94598 47.1889 0.890869 44.6408 0.890869C42.4462 0.890869 40.552 0.939251 39.0107 1.03474C37.3219 1.13932 35.9998 1.29666 34.9693 1.51583C33.7414 1.77683 32.878 2.06257 32.1698 2.44308C32.1601 2.44817 32.1506 2.45363 32.1409 2.4589C31.3051 2.92744 30.6804 3.50383 30.2839 4.17226C30.279 4.18063 30.274 4.189 30.2693 4.19755L2.52507 52.7282C2.51901 52.7389 2.51296 52.7495 2.50709 52.7602C2.03208 53.6316 1.61228 54.5241 1.25905 55.4132C1.25098 55.4334 1.24346 55.4538 1.23612 55.4743C0.899032 56.4212 0.651624 57.3194 0.479777 58.2197C0.302428 59.1488 0.174047 60.2059 0.0981189 61.3614C0.0302605 62.3936 0 63.6053 0 65.2905C0 67.2712 0.0814291 68.725 0.256577 69.8654C0.452266 71.141 0.768817 72.1526 1.22402 72.9588C1.23832 72.984 1.25336 73.009 1.26877 73.0335C1.86262 73.9762 2.63034 74.603 3.55065 74.8971C4.20502 75.1121 4.97567 75.2211 5.84133 75.2211H38.1867V89.4623C38.1867 90.3101 38.433 91.0729 38.9188 91.7301C39.3935 92.3719 40.1302 92.8632 41.1714 93.2324C41.1901 93.239 41.2088 93.2452 41.2277 93.2514C42.0579 93.5158 43.1235 93.7204 44.3095 93.843C45.4547 93.9613 46.8484 94.0164 48.6954 94.0164C50.6308 94.0164 52.0557 93.9611 53.1796 93.8427C54.3016 93.7243 55.3255 93.5287 56.2231 93.2621C56.2471 93.2548 56.271 93.2474 56.2946 93.2392C57.3598 92.8747 58.1108 92.3914 58.5888 91.7632C59.1148 91.0987 59.3924 90.3041 59.3924 89.4627V75.2214H65.4786C66.414 75.2214 68.1322 74.8345 69.1417 72.2456C69.7192 70.8185 70 68.8569 70 66.2492C69.9996 63.2814 69.6901 61.2528 69.0252 59.8672ZM65.7343 70.8978C65.7304 70.9071 65.7268 70.9166 65.7231 70.9258C65.5696 71.3218 65.4361 71.5073 65.3693 71.5834H57.5583C56.5453 71.5834 55.7242 72.3978 55.7242 73.4022V89.4623C55.7242 89.4783 55.723 89.4872 55.723 89.4878C55.7219 89.4905 55.7158 89.5012 55.7019 89.5185C55.698 89.5232 55.694 89.5283 55.6901 89.5331C55.6456 89.5653 55.4944 89.6617 55.1324 89.7883C54.4595 89.9852 53.6722 90.1322 52.7913 90.225C51.813 90.3283 50.4731 90.3785 48.6952 90.3785C47.0017 90.3785 45.6915 90.3283 44.6895 90.2246C43.7799 90.1306 42.9608 89.9789 42.378 89.7966C42.0594 89.6815 41.9156 89.592 41.8646 89.5554C41.8593 89.5391 41.8549 89.5122 41.8549 89.4621V73.402C41.8549 72.3977 41.0338 71.5832 40.0209 71.5832H5.84133C5.24967 71.5832 4.89461 71.5068 4.70094 71.4427C4.69287 71.44 4.6848 71.4375 4.67655 71.4349C4.63987 71.4235 4.53808 71.3473 4.40328 71.1426C4.24519 70.8491 4.03372 70.3001 3.88297 69.318C3.73845 68.3762 3.66821 67.0588 3.66821 65.2903C3.66821 63.709 3.697 62.5356 3.75862 61.598C3.82483 60.5893 3.93432 59.6802 4.08398 58.8959C4.21896 58.1886 4.41538 57.475 4.68407 56.7159C4.97879 55.9774 5.32909 55.2342 5.72542 54.5058L33.4487 6.01149C33.4694 5.97966 33.5773 5.83451 33.9309 5.63408C34.3089 5.43437 34.9 5.25084 35.7379 5.07278C36.5889 4.8918 37.7341 4.75848 39.2392 4.66535C40.7048 4.57459 42.5221 4.52858 44.6408 4.52858C47.1009 4.52858 49.0321 4.5806 50.5461 4.68773C52.1096 4.79704 53.345 4.96728 54.218 5.19391C54.2312 5.19755 54.2446 5.20064 54.2578 5.20392C55.1086 5.40472 55.5432 5.64353 55.7242 5.76594V58.9552C55.7242 59.9596 56.5453 60.7741 57.5583 60.7741H65.32C65.3932 60.8543 65.5296 61.0344 65.6971 61.3963C65.7013 61.4058 65.7058 61.4152 65.7102 61.4243C65.9936 62.0111 66.3316 63.3243 66.3316 66.2488C66.3316 68.36 66.1306 69.9242 65.7343 70.8978Z" fill="white"/>
<path d="M28.1407 40.4358C29.1536 40.4358 29.9747 39.6213 29.9747 38.6169C29.9747 37.6126 29.1536 36.7981 28.1407 36.7981H28.1394C27.1265 36.7981 26.3062 37.6126 26.3062 38.6169C26.3062 39.6213 27.1278 40.4358 28.1407 40.4358Z" fill="white"/>
</svg>
