<svg width="70" height="95" viewBox="0 0 70 95" fill="none" xmlns="http://www.w3.org/2000/svg">
<path d="M67.5895 50.285C65.955 46.8219 63.5509 43.8897 60.451 41.5752C57.3945 39.2724 53.554 37.5032 49.0397 36.3182C44.6498 35.1585 39.5694 34.5706 33.9397 34.5706C31.9558 34.5706 30.0442 34.5943 28.2589 34.6409C27.1749 34.6689 26.0825 34.7218 24.9912 34.7991V19.8375H58.6971C59.8179 19.8375 61.8646 19.4478 62.9949 16.8421C63.642 15.4039 63.9565 13.2544 63.9565 10.2714C63.9565 8.73851 63.8929 7.55734 63.7571 6.55897C63.6056 5.41855 63.351 4.48657 62.9785 3.71083C62.5765 2.83905 61.9829 2.13242 61.2606 1.66625C60.4836 1.15897 59.5976 0.890869 58.6969 0.890869H11.0904C8.74896 0.890869 6.93897 1.48855 5.71098 2.66735C5.70329 2.67462 5.6958 2.6819 5.68832 2.68936C4.53578 3.83232 3.97561 5.50076 3.97561 7.78961V45.946C3.97561 48.2123 4.44744 49.7467 5.45656 50.771C6.50248 51.8391 8.11272 52.3807 10.2422 52.3807C12.4203 52.3807 14.848 52.2438 17.4576 51.9738C17.4659 51.9729 17.4742 51.972 17.4823 51.9711C19.8203 51.7043 22.4856 51.569 25.404 51.569C28.9459 51.569 32.0136 51.8472 34.523 52.3964C34.7458 52.4449 34.9645 52.496 35.1794 52.5495C36.2833 52.8238 37.4331 52.2636 37.7472 51.2972C38.0611 50.3309 37.4202 49.3249 36.3161 49.0502C36.0584 48.986 35.7963 48.9251 35.5304 48.8669C32.6926 48.2459 29.2857 47.9311 25.4042 47.9311C22.312 47.9311 19.4707 48.0762 16.9583 48.3621C14.5144 48.6148 12.2548 48.7428 10.2422 48.7428C9.28564 48.7428 8.77349 48.5677 8.60907 48.3998C8.56044 48.3503 8.13268 47.8607 8.13268 45.9458V7.78961C8.13268 5.99204 8.58746 5.31979 8.7951 5.1068C9.20582 4.7232 9.97779 4.52858 11.0904 4.52858H58.6747C58.6903 4.5344 58.7275 4.55077 58.7911 4.59261C58.8372 4.62444 58.9871 4.77395 59.1264 5.07861C59.1314 5.08988 59.1365 5.1008 59.1419 5.11189C59.3594 5.56188 59.5229 6.19011 59.6283 6.98422C59.7433 7.82963 59.7992 8.90512 59.7992 10.2716C59.7992 13.3735 59.4319 14.8357 59.1237 15.5163C59.1195 15.5256 59.1153 15.5349 59.1114 15.5441C58.9158 15.9978 58.7422 16.1587 58.6894 16.1998H22.9125C21.7645 16.1998 20.834 17.0143 20.834 18.0187V36.8069C20.834 37.3262 21.0878 37.8209 21.5311 38.1662C21.9745 38.5114 22.566 38.6738 23.1551 38.6134C24.8892 38.4352 26.6474 38.3219 28.3817 38.2769C30.1267 38.2315 31.9965 38.2084 33.9393 38.2084C39.1618 38.2084 43.8379 38.744 47.8414 39.8017C51.7968 40.8401 55.1266 42.3643 57.7454 44.3375C60.3835 46.3072 62.3466 48.707 63.749 51.6783C65.1383 54.5999 65.8427 58.103 65.8427 62.0901C65.8427 66.5511 64.9479 70.5887 63.1832 74.0904C61.4423 77.545 58.9347 80.5106 55.7373 82.8997C52.5316 85.2733 48.5938 87.1327 44.0368 88.4256C39.4424 89.7215 34.2347 90.3786 28.5586 90.3786C25.4905 90.3786 22.6107 90.2131 19.9965 89.8863C17.3944 89.5642 14.9444 89.1416 12.7148 88.6313C10.4166 88.0805 8.76081 87.6058 7.51805 87.1425C5.85086 86.5096 5.42663 86.2582 5.32915 86.1853C5.31398 86.1729 5.29839 86.1603 5.28259 86.1483C5.06642 85.9816 4.91365 85.8149 4.81575 85.64C4.68335 85.3735 4.56612 85.0223 4.46095 84.5805C4.3591 84.1349 4.28448 83.5139 4.23314 82.682C4.18242 81.8618 4.15665 80.8647 4.15665 79.7183C4.15665 78.5186 4.20633 77.498 4.30423 76.6843C4.41688 75.7468 4.56862 75.2632 4.67628 75.0229C4.67982 75.0149 4.68335 75.0068 4.68688 74.9987C4.7376 74.8805 4.78146 74.7918 4.817 74.7267C5.03047 74.7927 5.40273 74.9313 5.97225 75.2179C5.98347 75.2236 5.9949 75.2292 6.00655 75.2347C7.16637 75.7929 8.644 76.3993 10.4095 77.0411C12.2899 77.7141 14.5252 78.3207 17.0375 78.8409C19.6428 79.3986 22.8144 79.6816 26.4645 79.6816C29.596 79.6816 32.5286 79.3904 35.1808 78.8164C35.1875 78.8149 35.1943 78.8134 35.201 78.812C37.9858 78.1832 40.287 77.2145 42.2481 75.8416C44.2256 74.4358 45.7529 72.6868 46.7834 70.6513C47.8364 68.5978 48.3704 66.1544 48.3704 63.3888C48.3704 63.272 48.3693 63.1562 48.367 63.0405C48.3488 62.0361 47.3935 61.234 46.2557 61.2507C45.1079 61.2667 44.1923 62.094 44.2106 63.0983C44.2123 63.1947 44.2133 63.2917 44.2133 63.3888C44.2133 65.6375 43.802 67.58 42.9865 69.1699C42.2096 70.7046 41.1107 71.9631 39.6391 73.0095C38.1604 74.0444 36.3722 74.7896 34.1723 75.2872C31.8492 75.7892 29.256 76.0437 26.4647 76.0437C23.1474 76.0437 20.3081 75.796 18.0105 75.304C15.6923 74.824 13.6645 74.2758 11.9942 73.6779C10.3868 73.0937 9.05201 72.5477 8.02625 72.0549C6.63738 71.3583 5.56403 71.0336 4.64947 71.0336C3.73201 71.0336 2.89955 71.2981 2.23567 71.7994C1.63809 72.2166 1.17978 72.8269 0.799612 73.7105C0.502589 74.3796 0.302426 75.2041 0.17044 76.3036C0.0557046 77.2561 0 78.3733 0 79.7183C0 80.93 0.0276451 81.9933 0.0825184 82.8782C0.145498 83.8997 0.241734 84.6673 0.388271 85.3079C0.56266 86.0408 0.765732 86.6225 1.02763 87.1376C1.03365 87.1494 1.03989 87.1615 1.04613 87.1731C1.38119 87.7962 1.87401 88.3633 2.51087 88.8592C3.10367 89.3372 4.01947 89.7793 5.87643 90.4845C7.31124 91.0192 9.13931 91.5462 11.6288 92.1426C11.6363 92.1444 11.6435 92.146 11.651 92.1477C14.038 92.6948 16.6501 93.1457 19.4116 93.4876C22.2168 93.8385 25.2945 94.0164 28.5586 94.0164C34.6685 94.0164 40.3052 93.3001 45.316 91.8867C50.3928 90.4465 54.8026 88.3572 58.4298 85.6713C62.113 82.9191 64.992 79.5168 66.987 75.5581C68.9863 71.5908 70 67.0596 70 62.09C70 57.6208 69.1881 53.6477 67.5895 50.285Z" fill="white"/>
<path d="M45.6977 55.2238C45.6977 54.2194 44.7672 53.4049 43.6192 53.4049H43.6177C42.4698 53.4049 41.54 54.2194 41.54 55.2238C41.54 56.2281 42.4712 57.0426 43.6192 57.0426C44.7672 57.0426 45.6977 56.2281 45.6977 55.2238Z" fill="white"/>
</svg>
