<svg width="51" height="64" viewBox="0 0 51 64" fill="none" xmlns="http://www.w3.org/2000/svg">
<path d="M29.9869 5.56418H22.0133C21.1081 5.56418 20.3355 6.21969 20.1866 7.11404L19.5186 11.1284H32.4815L31.8135 7.11404C31.6646 6.21969 30.8921 5.56418 29.9869 5.56418Z" fill="#FFDC64"/>
<path d="M7.4814 18.5475H2.85181V20.4022H7.4814V18.5475Z" fill="#E1A546"/>
<path d="M49.1481 18.5475H44.5186V20.4022H49.1481V18.5475Z" fill="#E1A546"/>
<path d="M39.7952 10.2009H12.205C11.0369 10.2009 9.99365 10.9327 9.59443 12.0322L6.55566 20.4019V23.184H45.4445V20.4019L42.4058 12.0322C42.0065 10.9327 40.9632 10.2009 39.7952 10.2009Z" fill="#FFC850"/>
<path d="M2.85186 16.6924H3.77773C4.80049 16.6924 5.62959 17.5227 5.62959 18.5472C5.62959 19.5715 4.80059 20.4019 3.77773 20.4019H2.85186C1.829 20.4019 1 19.5715 1 18.5472C1 17.5227 1.829 16.6924 2.85186 16.6924Z" fill="#FFC850"/>
<path d="M48.2222 16.6924H49.1481C50.1709 16.6924 51 17.5227 51 18.5472C51 19.5715 50.171 20.4019 49.1481 20.4019H48.2222C47.1994 20.4019 46.3704 19.5716 46.3704 18.5472C46.3704 17.5227 47.1994 16.6924 48.2222 16.6924Z" fill="#FFC850"/>
<path d="M39.7952 12.056C40.1832 12.056 40.5328 12.3013 40.6653 12.6664L43.5926 20.729V21.3295H8.40747V20.729L11.3348 12.6664C11.4674 12.3013 11.8169 12.056 12.2049 12.056H39.7952Z" fill="#707487"/>
<path d="M28.7778 12.056H12.2049C11.8169 12.056 11.4673 12.3013 11.3348 12.6664L8.40747 20.729V21.3295H19.5186L28.7778 12.056Z" fill="#5B5D6E"/>
<path d="M2.85181 36.1676V43.5865C2.85181 44.0987 3.26636 44.5139 3.77769 44.5139H6.55542C7.06675 44.5139 7.4813 44.0987 7.4813 43.5865V36.1676H2.85181Z" fill="#5B5D6E"/>
<path d="M2.85181 39.8528C3.62798 40.4412 4.58325 40.8038 5.62954 40.8038H7.4814V36.167H2.85181V39.8528Z" fill="#464655"/>
<path d="M49.148 36.167V43.5859C49.148 44.0981 48.7335 44.5132 48.2222 44.5132H45.4444C44.9331 44.5132 44.5186 44.0981 44.5186 43.5859V36.167H49.148Z" fill="#5B5D6E"/>
<path d="M49.1481 39.8528C48.372 40.4412 47.4167 40.8038 46.3704 40.8038H44.5186V36.167H49.1481V39.8528Z" fill="#464655"/>
<path d="M48.3364 24.0228L45.4444 20.4021H6.55552L3.66343 24.0228C3.13804 24.6805 2.85181 25.4977 2.85181 26.3401V36.1672C2.85181 37.7038 4.09546 38.9493 5.62954 38.9493H46.3703C47.9044 38.9493 49.148 37.7037 49.148 36.1672V26.3401C49.1481 25.4977 48.8618 24.6804 48.3364 24.0228Z" fill="#FFDC64"/>
<path d="M10.2592 32.4576C9.7479 32.4576 9.33335 32.0424 9.33335 31.5302V26.3398C9.33335 25.4974 9.5395 24.6803 9.91772 24.0226L12 20.4018H6.55552L3.66343 24.0226C3.13804 24.6803 2.85181 25.4975 2.85181 26.3398V36.167C2.85181 37.7035 4.09546 38.949 5.62954 38.949H46.3703C47.9044 38.949 49.148 37.7034 49.148 36.167V32.4575H10.2592V32.4576Z" fill="#FFC850"/>
<path d="M16.5377 30.6029H35.4621C35.887 30.6029 36.2573 30.3132 36.3603 29.9004L36.8233 28.0457C36.9694 27.4604 36.5273 26.8934 35.9251 26.8934H16.0748C15.4723 26.8934 15.0304 27.4604 15.1765 28.0457L15.6395 29.9004C15.7425 30.3131 16.1129 30.6029 16.5377 30.6029Z" fill="#5B5D6E"/>
<path d="M9.33345 36.167C10.1005 36.167 10.7223 35.5442 10.7223 34.7759C10.7223 34.0077 10.1005 33.3849 9.33345 33.3849C8.5664 33.3849 7.94458 34.0077 7.94458 34.7759C7.94458 35.5442 8.5664 36.167 9.33345 36.167Z" fill="white"/>
<path d="M42.6667 36.167C43.4337 36.167 44.0556 35.5442 44.0556 34.7759C44.0556 34.0077 43.4337 33.3849 42.6667 33.3849C41.8996 33.3849 41.2778 34.0077 41.2778 34.7759C41.2778 35.5442 41.8996 36.167 42.6667 36.167Z" fill="white"/>
<path d="M8.87051 31.0663C10.4046 31.0663 11.6482 29.8207 11.6482 28.2842C11.6482 26.7478 10.4046 25.5022 8.87051 25.5022C7.33641 25.5022 6.09277 26.7478 6.09277 28.2842C6.09277 29.8207 7.33641 31.0663 8.87051 31.0663Z" fill="white"/>
<path d="M43.1298 31.0663C44.6639 31.0663 45.9075 29.8207 45.9075 28.2842C45.9075 26.7478 44.6639 25.5022 43.1298 25.5022C41.5957 25.5022 40.3521 26.7478 40.3521 28.2842C40.3521 29.8207 41.5957 31.0663 43.1298 31.0663Z" fill="white"/>
<path d="M36.1851 35.2397H15.8148C15.3035 35.2397 14.8889 35.6549 14.8889 36.167V38.9491H37.1112V36.167C37.1111 35.6548 36.6964 35.2397 36.1851 35.2397Z" fill="#464655"/>
<path d="M28.7778 9.27367H23.2223C22.7109 9.27367 22.2964 8.85847 22.2964 8.34635C22.2964 7.83423 22.7109 7.41904 23.2223 7.41904H28.7778C29.2892 7.41904 29.7037 7.83423 29.7037 8.34635C29.7038 8.85838 29.2893 9.27367 28.7778 9.27367Z" fill="#5B5D6E"/>
<path d="M5.7543 55.7047H3.19765L3.18398 54.2965H5.33047C5.70872 54.2965 6.01862 54.2487 6.26015 54.153C6.50169 54.0527 6.6817 53.9091 6.80019 53.7223C6.92324 53.5309 6.98476 53.2985 6.98476 53.025C6.98476 52.7151 6.92552 52.4645 6.80703 52.2731C6.6931 52.0817 6.51308 51.9427 6.26699 51.8561C6.02545 51.7695 5.71328 51.7262 5.33047 51.7262H3.90859V60.0729H1.85781V50.1198H5.33047C5.90924 50.1198 6.4265 50.1744 6.88223 50.2838C7.34251 50.3932 7.73216 50.5595 8.05117 50.7828C8.37018 51.0061 8.614 51.2887 8.78262 51.6305C8.95124 51.9677 9.03555 52.3688 9.03555 52.8336C9.03555 53.2438 8.94212 53.622 8.75527 53.9684C8.57298 54.3147 8.28359 54.5973 7.88711 54.816C7.49518 55.0348 6.98249 55.1556 6.34902 55.1783L5.7543 55.7047ZM5.66543 60.0729H2.63711L3.43691 58.4733H5.66543C6.02545 58.4733 6.3194 58.4163 6.54726 58.3024C6.77513 58.1839 6.94375 58.0244 7.05312 57.8239C7.1625 57.6233 7.21719 57.3932 7.21719 57.1334C7.21719 56.8418 7.16706 56.5888 7.0668 56.3746C6.97109 56.1604 6.81614 55.9964 6.60195 55.8824C6.38776 55.764 6.10521 55.7047 5.7543 55.7047H3.77871L3.79238 54.2965H6.25332L6.725 54.8502C7.33112 54.8411 7.81875 54.9482 8.18789 55.1715C8.56159 55.3903 8.83275 55.6751 9.00137 56.026C9.17454 56.3769 9.26113 56.7529 9.26113 57.1539C9.26113 57.792 9.12213 58.3297 8.84414 58.7672C8.56614 59.2002 8.15827 59.526 7.62051 59.7448C7.0873 59.9635 6.43561 60.0729 5.66543 60.0729ZM15.688 50.1198V60.0729H13.6441V50.1198H15.688ZM18.7505 50.1198V51.7262H10.6294V50.1198H18.7505ZM23.3795 58.4049V55.11C23.3795 54.873 23.3408 54.6702 23.2633 54.5016C23.1858 54.3284 23.0651 54.194 22.901 54.0983C22.7415 54.0026 22.5342 53.9547 22.2789 53.9547C22.0602 53.9547 21.8711 53.9934 21.7116 54.0709C21.5521 54.1438 21.429 54.2509 21.3424 54.3922C21.2558 54.5289 21.2125 54.6907 21.2125 54.8776H19.2438C19.2438 54.5631 19.3167 54.2646 19.4625 53.9821C19.6084 53.6995 19.8203 53.4511 20.0983 53.2369C20.3763 53.0182 20.7067 52.8473 21.0895 52.7242C21.4769 52.6012 21.9098 52.5397 22.3883 52.5397C22.9625 52.5397 23.473 52.6354 23.9196 52.8268C24.3662 53.0182 24.7171 53.3053 24.9723 53.6881C25.2321 54.0709 25.362 54.5494 25.362 55.1237V58.2887C25.362 58.6943 25.387 59.027 25.4371 59.2867C25.4873 59.542 25.5602 59.7653 25.6559 59.9567V60.0729H23.6666C23.5709 59.8724 23.498 59.6217 23.4479 59.3209C23.4023 59.0156 23.3795 58.7102 23.3795 58.4049ZM23.6393 55.568L23.653 56.6823H22.5524C22.2926 56.6823 22.067 56.7119 21.8756 56.7711C21.6842 56.8304 21.527 56.9147 21.4039 57.024C21.2809 57.1289 21.1898 57.2519 21.1305 57.3932C21.0758 57.5345 21.0485 57.6894 21.0485 57.858C21.0485 58.0267 21.0872 58.1793 21.1647 58.316C21.2422 58.4482 21.3538 58.553 21.4996 58.6305C21.6455 58.7034 21.8164 58.7399 22.0123 58.7399C22.3086 58.7399 22.5661 58.6806 22.7848 58.5621C23.0036 58.4436 23.1722 58.2978 23.2907 58.1246C23.4137 57.9515 23.4775 57.7874 23.4821 57.6324L24.0016 58.4664C23.9287 58.6533 23.8284 58.847 23.7008 59.0475C23.5778 59.248 23.4205 59.4371 23.2291 59.6149C23.0377 59.788 22.8076 59.9316 22.5387 60.0455C22.2698 60.1549 21.9508 60.2096 21.5817 60.2096C21.1123 60.2096 20.6862 60.1162 20.3034 59.9293C19.9251 59.7379 19.6243 59.4759 19.401 59.1432C19.1823 58.8059 19.0729 58.4231 19.0729 57.9948C19.0729 57.6074 19.1458 57.2633 19.2916 56.9625C19.4375 56.6617 19.6517 56.4088 19.9342 56.2037C20.2213 55.9941 20.5791 55.8369 21.0075 55.7321C21.4358 55.6227 21.9326 55.568 22.4977 55.568H23.6393ZM29.6082 52.6764V60.0729H27.6394V52.6764H29.6082ZM34.4138 52.6764L31.2283 57.3043H29.2595L29.0203 55.486H30.3259L31.9187 52.6764H34.4138ZM32.0076 60.0729L30.1892 56.9489L31.905 55.9987L34.6462 60.0729H32.0076ZM38.9608 58.6715C39.2024 58.6715 39.4165 58.6259 39.6034 58.5348C39.7902 58.4391 39.9361 58.3069 40.0409 58.1383C40.1503 57.9651 40.2072 57.7623 40.2118 57.5299H42.0643C42.0598 58.0494 41.9208 58.512 41.6473 58.9176C41.3739 59.3186 41.007 59.6354 40.5468 59.8678C40.0865 60.0957 39.5715 60.2096 39.0018 60.2096C38.4276 60.2096 37.9263 60.1139 37.4979 59.9225C37.0741 59.7311 36.7209 59.4668 36.4384 59.1295C36.1558 58.7877 35.9439 58.3912 35.8026 57.9401C35.6613 57.4843 35.5907 56.9967 35.5907 56.4772V56.2789C35.5907 55.7548 35.6613 55.2672 35.8026 54.816C35.9439 54.3603 36.1558 53.9638 36.4384 53.6266C36.7209 53.2848 37.0741 53.0182 37.4979 52.8268C37.9218 52.6354 38.4185 52.5397 38.9882 52.5397C39.5943 52.5397 40.1252 52.6559 40.5809 52.8883C41.0412 53.1207 41.4012 53.4534 41.661 53.8864C41.9253 54.3147 42.0598 54.8229 42.0643 55.4108H40.2118C40.2072 55.1647 40.1548 54.9414 40.0546 54.7408C39.9589 54.5403 39.8176 54.3808 39.6307 54.2623C39.4484 54.1393 39.2229 54.0778 38.954 54.0778C38.6669 54.0778 38.4322 54.1393 38.2499 54.2623C38.0676 54.3808 37.9263 54.5449 37.8261 54.7545C37.7258 54.9596 37.6552 55.1943 37.6141 55.4586C37.5777 55.7184 37.5595 55.9918 37.5595 56.2789V56.4772C37.5595 56.7643 37.5777 57.04 37.6141 57.3043C37.6506 57.5686 37.719 57.8033 37.8192 58.0084C37.924 58.2135 38.0676 58.3753 38.2499 58.4938C38.4322 58.6123 38.6692 58.6715 38.9608 58.6715ZM45.7979 57.3248L48.2793 52.6764H50.248V60.0729H48.2793V55.4176L45.7979 60.0729H43.8291V52.6764H45.7979V57.3248Z" fill="#4E4E4E"/>
</svg>
