<svg width="168" height="55" viewBox="0 0 168 55" fill="none" xmlns="http://www.w3.org/2000/svg">
<path fill-rule="evenodd" clip-rule="evenodd" d="M139.606 40.7506C139.606 34.3101 133.734 29.0422 126.558 29.0422C119.382 29.0422 113.51 34.3112 113.51 40.7506C113.51 40.7506 113.416 42.6316 114.007 44.8624L51.7955 43.9307C52.0555 43.2069 52.3522 40.5064 52.3522 40.5064C52.3522 34.2012 46.6034 29.0422 39.5769 29.0422C32.5503 29.0422 26.8015 34.2012 26.8015 40.5064L26.8567 41.7252L25.0577 41.5459C21.7027 41.2115 16.9508 40.2424 15.4609 37.1888C14.627 35.4772 15.3383 33.4378 15.7638 31.7438C16.0066 30.7703 16.3119 29.7088 17.1703 29.0158C18.3255 28.083 18.4739 27.4615 18.4739 27.4615L18.556 19.6944C18.556 19.6944 18.209 18.5548 19.7087 17.8299C21.2097 17.1039 24.6727 14.1009 24.6727 14.1009C24.6727 14.1009 29.2896 11.0979 30.0977 10.6832C30.0977 10.6832 28.8273 9.5436 29.7507 8.7153C29.7507 8.7153 29.9825 8.404 32.8103 8.0421C32.8103 8.0421 61.5493 5.4527 72.9758 5.8674C72.9758 5.8674 87.23 6.4372 94.6171 9.1289C102.003 11.8228 107.428 13.5839 118.393 18.9684C118.393 18.9684 131.204 20.2114 142.747 23.9404C142.747 23.9404 149.786 26.1162 150.133 28.4977C150.133 28.4977 152.787 30.7769 152.787 33.5731C152.787 36.3693 152.21 39.5791 152.21 39.5791C152.21 39.5791 152.21 39.9938 152.556 40.3051C152.903 40.6153 153.364 41.2368 153.134 41.4436C152.903 41.6515 148.056 44.033 139.283 44.6556L139.606 40.7506Z" stroke="black"/>
<path fill-rule="evenodd" clip-rule="evenodd" d="M77.1879 9.647C77.1879 9.647 87.4604 10.0617 93.9241 12.7545C93.9241 12.7545 101.657 15.7575 104.542 17.2084C104.542 17.2084 107.657 18.4514 108.005 18.6582C108.351 18.865 108.467 19.0718 108.467 19.6944C108.467 20.3159 107.543 21.8691 107.543 21.8691C107.543 21.8691 107.197 22.4906 106.274 22.4906C105.351 22.4906 79.0347 20.5216 79.0347 20.5216L77.1879 9.6481V9.647ZM87.3746 25.5068L79.5301 24.926L87.3746 25.5068ZM56.8378 23.4355L48.9933 22.8547L56.8378 23.4355ZM72.1086 9.4402L72.4557 20.0046L50.9885 18.348C50.9885 18.348 50.5262 14.8258 51.6801 13.376C52.8352 11.9262 54.1044 10.373 54.1044 10.373C54.1044 10.373 64.1464 9.0255 72.1099 9.4402H72.1086ZM46.1729 15.8169C44.721 17.4493 43.6014 19.2082 43.6014 21.1442C43.6014 23.001 44.0575 24.5652 44.797 25.9776L46.1729 15.8169ZM110.896 23.3794C111.239 24.1252 111.554 24.8809 111.795 25.6608C112.495 27.9389 112.555 30.6614 112.264 33.418L110.896 23.3794ZM32.3123 40.7506C32.2945 41.6164 32.4693 42.4767 32.8264 43.2813C33.1835 44.0858 33.7158 44.8184 34.3921 45.4364C35.0685 46.0543 35.8753 46.5451 36.7655 46.8802C37.6557 47.2153 38.6113 47.3878 39.5767 47.3878C40.5421 47.3878 41.4978 47.2153 42.388 46.8802C43.2782 46.5451 44.085 46.0543 44.7613 45.4364C45.4377 44.8184 45.9699 44.0858 46.327 43.2813C46.6841 42.4767 46.8589 41.6164 46.8412 40.7506C46.8589 39.8848 46.6841 39.0245 46.327 38.2199C45.9699 37.4154 45.4377 36.6828 44.7613 36.0648C44.085 35.4469 43.2782 34.9561 42.388 34.621C41.4978 34.2859 40.5421 34.1134 39.5767 34.1134C38.6113 34.1134 37.6557 34.2859 36.7655 34.621C35.8753 34.9561 35.0685 35.4469 34.3921 36.0648C33.7158 36.6828 33.1835 37.4154 32.8264 38.2199C32.4693 39.0245 32.2945 39.8848 32.3123 40.7506V40.7506Z" stroke="black"/>
<path fill-rule="evenodd" clip-rule="evenodd" d="M29.248 40.7506C29.2477 43.2083 30.3357 45.5655 32.2727 47.3036C34.2097 49.0418 36.8371 50.0186 39.5769 50.0192C40.9336 50.019 42.277 49.7792 43.5303 49.3133C44.7836 48.8474 45.9224 48.1646 46.8815 47.304C47.8407 46.4433 48.6014 45.4215 49.1203 44.2971C49.6392 43.1727 49.9062 41.9676 49.9058 40.7506C49.9063 39.5335 49.6395 38.3283 49.1207 37.2037C48.6018 36.0792 47.8411 35.0573 46.8819 34.1965C45.9228 33.3357 44.784 32.6528 43.5306 32.1869C42.2772 31.7209 40.9337 31.481 39.5769 31.4809C38.2202 31.4812 36.8768 31.7212 35.6234 32.1872C34.3701 32.6532 33.2314 33.3361 32.2722 34.1968C31.3131 35.0576 30.5524 36.0794 30.0335 37.2039C29.5146 38.3284 29.2477 39.5336 29.248 40.7506V40.7506ZM27.5005 15.8103C27.5005 15.8103 29.1155 18.0895 30.9635 18.3997C30.9635 18.3997 36.1004 19.2797 36.6768 19.6944C37.2531 20.108 37.2531 20.3159 37.2531 20.3159C37.2531 20.3159 36.445 21.0408 35.4076 21.2476C34.3677 21.4544 30.4436 21.5589 30.0978 21.5589C29.752 21.5589 27.904 21.6623 27.3276 22.3872C26.7513 23.1121 25.2503 24.7687 24.9033 25.597L20.9792 24.9766C20.9792 24.9766 19.3642 24.5619 19.1324 23.837C18.9019 23.111 18.6713 21.6623 19.1324 20.834C19.5947 20.0046 19.9418 19.4876 19.9418 19.4876C19.9418 19.4876 20.1711 18.9695 22.4802 17.9333C24.788 16.8971 27.5005 15.8103 27.5005 15.8103ZM134.493 25.8566C134.493 25.8566 141.65 25.6487 144.996 26.7894C144.996 26.7894 148.979 28.1864 150.133 29.8441C150.133 29.8441 150.248 30.1543 150.133 30.7769C150.018 31.3973 149.557 31.1905 148.747 31.0871C147.941 30.9837 144.247 30.3622 144.247 30.3622C144.247 30.3622 141.823 29.9475 140.09 28.9124C138.361 27.8762 134.493 25.8566 134.493 25.8566V25.8566ZM74.8226 9.59529C75.8465 20.2191 75.7987 30.7065 76.0415 41.3413L74.8226 9.59529ZM119.294 40.7506C119.276 41.6164 119.451 42.4767 119.808 43.2813C120.165 44.0858 120.697 44.8184 121.373 45.4364C122.05 46.0543 122.857 46.5451 123.747 46.8802C124.637 47.2153 125.593 47.3878 126.558 47.3878C127.523 47.3878 128.479 47.2153 129.369 46.8802C130.259 46.5451 131.066 46.0543 131.743 45.4364C132.419 44.8184 132.951 44.0858 133.308 43.2813C133.665 42.4767 133.84 41.6164 133.822 40.7506C133.84 39.8848 133.665 39.0245 133.308 38.2199C132.951 37.4154 132.419 36.6827 131.743 36.0648C131.066 35.4469 130.259 34.9561 129.369 34.621C128.479 34.2859 127.523 34.1134 126.558 34.1134C125.593 34.1134 124.637 34.2859 123.747 34.621C122.857 34.9561 122.05 35.4469 121.373 36.0648C120.697 36.6827 120.165 37.4154 119.808 38.2199C119.451 39.0245 119.276 39.8848 119.294 40.7506Z" stroke="black"/>
<path fill-rule="evenodd" clip-rule="evenodd" d="M116.229 40.7506C116.229 43.2083 117.317 45.5655 119.254 47.3036C121.191 49.0418 123.818 50.0186 126.558 50.0192C127.915 50.0191 129.258 49.7792 130.511 49.3133C131.765 48.8474 132.903 48.1646 133.863 47.304C134.822 46.4433 135.582 45.4215 136.101 44.2971C136.62 43.1727 136.887 41.9676 136.887 40.7506C136.887 39.5335 136.621 38.3283 136.102 37.2037C135.583 36.0792 134.822 35.0573 133.863 34.1965C132.904 33.3357 131.765 32.6528 130.512 32.1869C129.258 31.7209 127.915 31.481 126.558 31.4809C125.201 31.4812 123.858 31.7212 122.604 32.1872C121.351 32.6532 120.212 33.3361 119.253 34.1968C118.294 35.0576 117.533 36.0794 117.014 37.2039C116.496 38.3284 116.229 39.5336 116.229 40.7506V40.7506Z" stroke="black"/>
</svg>
