<svg width="35" height="35" viewBox="0 0 35 35" fill="none" xmlns="http://www.w3.org/2000/svg">
<g clip-path="url(#clip0_9_836)">
<path d="M33.4449 22.9468C32.6836 22.0344 31.8235 21.2198 30.9916 20.4319C30.6993 20.155 30.3969 19.8687 30.1057 19.5844C30.1056 19.5843 30.1056 19.5842 30.1055 19.5842C29.7138 19.2021 29.522 18.9309 29.502 18.7306C29.4823 18.5337 29.6169 18.2416 29.9263 17.8099C30.389 17.1605 30.8823 16.5099 31.3594 15.8809C31.7835 15.3217 32.222 14.7435 32.6422 14.1619L32.7366 14.0314C33.5566 12.8965 34.4043 11.7229 34.8587 10.2928C34.9884 9.88283 35.1231 9.27606 34.7982 8.74341C34.473 8.21061 33.8703 8.0527 33.4455 7.98038C33.2381 7.94483 33.0412 7.94189 32.858 7.94189L27.5392 7.93717C26.6196 7.92186 25.9817 8.35772 25.634 9.233C25.3558 9.93204 25.0272 10.7422 24.6465 11.5107C23.9181 12.9943 22.9926 14.7031 21.6511 16.1268L21.5915 16.1902C21.5002 16.2877 21.351 16.4471 21.2743 16.4837C21.129 16.3924 20.9613 15.87 20.969 15.5964C20.9692 15.5896 20.9692 15.5829 20.9692 15.5762L20.9645 9.43049C20.9645 9.39925 20.9623 9.36801 20.9582 9.33704C20.8389 8.46026 20.6063 7.58129 19.2186 7.30744C19.1741 7.29863 19.1289 7.29425 19.0836 7.29425H13.5509C12.51 7.29425 11.9594 7.77092 11.518 8.28772C11.3903 8.43839 11.0508 8.83843 11.2238 9.32747C11.3988 9.82233 11.9202 9.92111 12.0914 9.95351C12.6943 10.0679 13.0061 10.4087 13.1026 11.0602C13.2934 12.326 13.3168 13.6801 13.1763 15.3196C13.1371 15.7598 13.0643 16.0943 12.9467 16.3725C12.9142 16.4496 12.8856 16.4973 12.8656 16.5254C12.8338 16.5125 12.7842 16.4879 12.7156 16.441C12.2919 16.1511 11.9726 15.7004 11.6638 15.2646C10.4304 13.5233 9.39302 11.6001 8.49183 9.38421C8.12071 8.47619 7.42303 7.96903 6.52862 7.9559C4.82455 7.92753 3.24852 7.92822 1.71207 7.95809C0.98739 7.97067 0.479205 8.19878 0.201392 8.63622C-0.076763 9.07447 -0.0665774 9.63324 0.231744 10.2973C2.36429 15.0394 4.30064 18.4891 6.51002 21.4828C8.06568 23.5905 9.63166 25.0535 11.4382 26.0871C13.3363 27.173 15.4769 27.7052 17.9602 27.7051C18.2426 27.7051 18.53 27.6982 18.8211 27.6844C20.3532 27.6146 20.9766 27.0051 21.0446 25.5129C21.0828 24.7242 21.1705 24.0854 21.4751 23.5303C21.5603 23.3749 21.6564 23.2707 21.7321 23.2516C21.8127 23.2315 21.9555 23.2808 22.1143 23.384C22.4046 23.5725 22.6546 23.8282 22.8601 24.0526C23.0685 24.2807 23.279 24.5164 23.4828 24.7442C23.9164 25.2294 24.3648 25.731 24.8346 26.2096C25.8971 27.2927 27.1219 27.7894 28.4766 27.6853L33.3442 27.6876C33.3443 27.6876 33.3444 27.6876 33.3444 27.6876C33.3599 27.6876 33.3753 27.6871 33.3908 27.6861C33.9522 27.6487 34.4376 27.3378 34.7227 26.8331C35.0659 26.2252 35.0607 25.4553 34.7085 24.7727C34.341 24.0631 33.8642 23.4523 33.4449 22.9468ZM33.5086 26.1475C33.4414 26.2664 33.3587 26.288 33.3159 26.2932L28.4494 26.291C28.4493 26.291 28.4491 26.291 28.4489 26.291C28.4297 26.291 28.4105 26.2917 28.3914 26.2934C27.4327 26.3732 26.6178 26.0362 25.8297 25.233C25.3827 24.7776 24.9454 24.2883 24.5224 23.8151C24.3163 23.5846 24.1032 23.346 23.8891 23.1117C23.6236 22.8217 23.2954 22.4885 22.8737 22.2146C22.2424 21.8048 21.7191 21.8172 21.3915 21.8998C21.0673 21.9815 20.6064 22.2146 20.2526 22.8601C19.7943 23.6954 19.6932 24.5966 19.6521 25.4478C19.6283 25.9685 19.5402 26.106 19.5035 26.1409C19.4553 26.1867 19.2942 26.2673 18.7568 26.2918C16.1745 26.4132 14.0074 25.9508 12.1307 24.877C10.4981 23.943 9.06858 22.6013 7.63201 20.655C5.48381 17.7443 3.59367 14.3736 1.50357 9.72587C1.42783 9.5575 1.40445 9.45243 1.39768 9.39617C1.451 9.37867 1.55518 9.35564 1.73784 9.35229C3.2587 9.32282 4.81826 9.322 6.50695 9.35017C6.73814 9.35358 7.00139 9.42297 7.20073 9.91072C8.14231 12.226 9.22998 14.2409 10.5261 16.0707C10.8702 16.5564 11.2985 17.161 11.9281 17.5917C12.5047 17.9866 12.9726 17.9677 13.2637 17.8824C13.5549 17.797 13.959 17.5598 14.2312 16.9153C14.4069 16.4999 14.513 16.0321 14.5656 15.4411C14.7158 13.6874 14.6891 12.2295 14.4818 10.8543C14.3358 9.86902 13.827 9.15726 13.0256 8.79379C13.168 8.71969 13.3283 8.68879 13.5511 8.68879H19.0114C19.3186 8.75769 19.3795 8.83863 19.4003 8.86632C19.4888 8.98396 19.5394 9.26226 19.5703 9.47971L19.5749 15.5688C19.5626 16.1525 19.8463 17.4471 20.8122 17.8021C20.8201 17.805 20.8281 17.8078 20.8361 17.8104C21.7155 18.0977 22.2972 17.477 22.6095 17.1434L22.6651 17.0842C24.1346 15.5246 25.1241 13.7023 25.8971 12.1276C26.3 11.3145 26.6413 10.4734 26.9298 9.74836C27.0742 9.38476 27.2056 9.32487 27.5191 9.3315C27.5234 9.33164 27.5276 9.33164 27.532 9.33164L32.8576 9.33636C32.9814 9.33636 33.1107 9.33779 33.211 9.35495C33.4647 9.39816 33.5693 9.45079 33.6037 9.4726C33.6073 9.513 33.6065 9.62921 33.5298 9.87175C33.1435 11.0878 32.3969 12.121 31.6066 13.2149L31.5122 13.3457C31.1016 13.9139 30.6679 14.4855 30.2487 15.0385C29.7654 15.6757 29.2658 16.3345 28.7922 16.9993C27.7795 18.4123 27.8685 19.3499 29.1323 20.5825C29.4309 20.8741 29.737 21.1641 30.0332 21.4445C30.8727 22.2397 31.6657 22.9908 32.3735 23.8389C32.744 24.2855 33.164 24.8219 33.4701 25.4131C33.6298 25.7226 33.5906 26.0022 33.5086 26.1475Z" fill="black"/>
<path d="M5.08467 11.5966C4.98227 11.394 4.88076 11.1908 4.7802 10.9872C4.60957 10.6421 4.19176 10.5003 3.84634 10.6709C3.50112 10.8415 3.35948 11.2596 3.53004 11.6048C3.63251 11.8122 3.73593 12.0192 3.84018 12.2256C3.96289 12.4684 4.20837 12.6084 4.46294 12.6084C4.56863 12.6084 4.67602 12.5842 4.77685 12.5333C5.12063 12.3595 5.25837 11.9402 5.08467 11.5966Z" fill="black"/>
<path d="M9.45775 18.8291C8.3145 17.2802 7.24495 15.5978 6.18811 13.6858C6.00183 13.3488 5.57759 13.2267 5.24064 13.4129C4.9037 13.5992 4.78147 14.0234 4.96775 14.3604C6.0544 16.3261 7.15615 18.0588 8.3359 19.6572C8.47262 19.8425 8.68364 19.9405 8.8974 19.9405C9.04123 19.9405 9.18629 19.8962 9.31084 19.8041C9.62058 19.5755 9.68634 19.139 9.45775 18.8291Z" fill="black"/>
</g>
<defs>
<clipPath id="clip0_9_836">
<rect width="35" height="35" fill="white"/>
</clipPath>
</defs>
</svg>
